<svg width="28" height="28" viewBox="0 0 28 28" fill="none" xmlns="http://www.w3.org/2000/svg">
<path d="M14.7124 0.29325C14.3224 -0.09775 13.6825 -0.09775 13.2925 0.29325L0.2925 13.2933C-0.0975 13.6833 -0.0975 14.3172 0.2925 14.7072C0.6825 15.0982 1.32242 15.0982 1.71242 14.7072L14.0025 2.41422L26.2925 14.7072C26.6825 15.0982 27.3224 15.0982 27.7124 14.7072C28.1024 14.3172 28.1024 13.6833 27.7124 13.2933L14.7124 0.29325Z" fill="black"/>
<path d="M27.7124 26.2933L14.7124 13.2932C14.3224 12.9022 13.6825 12.9022 13.2925 13.2932L0.2925 26.2933C-0.0975 26.6833 -0.0975 27.3172 0.2925 27.7072C0.6825 28.0982 1.32242 28.0982 1.71242 27.7072L14.0025 15.4142L26.2925 27.7072C26.6825 28.0982 27.3224 28.0982 27.7124 27.7072C28.1024 27.3172 28.1024 26.6833 27.7124 26.2933Z" fill="black"/>
</svg>
